<svg width="23" height="22" viewBox="0 0 23 22" fill="none" xmlns="http://www.w3.org/2000/svg">
<path d="M16.3148 12.2909C16.4076 12.1979 16.5179 12.1242 16.6393 12.0738C16.7607 12.0235 16.8909 11.9976 17.0223 11.9976C17.1537 11.9976 17.2838 12.0235 17.4052 12.0738C17.5266 12.1242 17.6369 12.1979 17.7298 12.2909L21.7298 16.2909C21.8227 16.3838 21.8965 16.4941 21.9468 16.6155C21.9972 16.7369 22.0231 16.867 22.0231 16.9984C22.0231 17.1298 21.9972 17.2599 21.9468 17.3813C21.8965 17.5027 21.8227 17.613 21.7298 17.7059L17.7298 21.7059C17.6369 21.7988 17.5266 21.8725 17.4052 21.9228C17.2838 21.9731 17.1537 21.999 17.0223 21.999C16.8909 21.999 16.7608 21.9731 16.6394 21.9228C16.518 21.8725 16.4077 21.7988 16.3148 21.7059C16.1271 21.5183 16.0217 21.2638 16.0217 20.9984C16.0217 20.867 16.0476 20.7369 16.0979 20.6155C16.1482 20.4941 16.2219 20.3838 16.3148 20.2909L18.6085 17.9984H1.02227C0.757055 17.9984 0.502701 17.893 0.315165 17.7055C0.127628 17.518 0.0222712 17.2636 0.0222712 16.9984C0.0222712 16.7332 0.127628 16.4788 0.315165 16.2913C0.502701 16.1038 0.757055 15.9984 1.02227 15.9984H18.6085L16.3148 13.7059C16.2218 13.613 16.148 13.5027 16.0977 13.3813C16.0474 13.2599 16.0215 13.1298 16.0215 12.9984C16.0215 12.867 16.0474 12.7369 16.0977 12.6155C16.148 12.4941 16.2218 12.3838 16.3148 12.2909ZM4.31477 0.290905L0.314771 4.2909C0.221795 4.38378 0.148036 4.49407 0.0977116 4.61547C0.0473873 4.73687 0.0214844 4.86699 0.0214844 4.99841C0.0214844 5.12982 0.0473873 5.25995 0.0977116 5.38135C0.148036 5.50275 0.221795 5.61303 0.314771 5.70591L4.31477 9.70591C4.50241 9.89355 4.75691 9.99896 5.02227 9.99896C5.28764 9.99896 5.54213 9.89355 5.72977 9.70591C5.91741 9.51827 6.02283 9.26377 6.02283 8.99841C6.02283 8.73304 5.91741 8.47855 5.72977 8.29091L3.43602 5.99841H21.0223C21.2875 5.99841 21.5418 5.89305 21.7294 5.70551C21.9169 5.51798 22.0223 5.26362 22.0223 4.99841C22.0223 4.73319 21.9169 4.47883 21.7294 4.2913C21.5418 4.10376 21.2875 3.99841 21.0223 3.99841H3.43602L5.72977 1.70591C5.91741 1.51826 6.02283 1.26377 6.02283 0.998405C6.02283 0.733042 5.91741 0.478546 5.72977 0.290905C5.54213 0.103264 5.28764 -0.00215149 5.02227 -0.00215149C4.75691 -0.00215149 4.50241 0.103264 4.31477 0.290905Z" fill="#F8F9FB"/>
</svg>
