<svg width="27" height="22" viewBox="0 0 27 22" fill="none" xmlns="http://www.w3.org/2000/svg">
<path d="M26 20.9979C26 21.2631 25.8946 21.5174 25.7071 21.705C25.5196 21.8925 25.2652 21.9979 25 21.9979H1C0.734784 21.9979 0.48043 21.8925 0.292893 21.705C0.105357 21.5174 0 21.2631 0 20.9979V0.997864C0 0.732647 0.105357 0.478294 0.292893 0.290757C0.48043 0.103221 0.734784 -0.00213623 1 -0.00213623C1.26522 -0.00213623 1.51957 0.103221 1.70711 0.290757C1.89464 0.478294 2 0.732647 2 0.997864V12.7941L8.34125 7.24786C8.51381 7.09681 8.73304 7.00966 8.96221 7.00101C9.19137 6.99236 9.41655 7.06275 9.6 7.20036L16.9513 12.7141L24.3412 6.24786C24.4381 6.15195 24.5536 6.07686 24.6806 6.02721C24.8076 5.97756 24.9434 5.95441 25.0796 5.95916C25.2159 5.96392 25.3497 5.99648 25.4729 6.05486C25.5961 6.11324 25.7061 6.19619 25.7961 6.29863C25.8861 6.40107 25.9541 6.52082 25.9961 6.65053C26.0381 6.78024 26.0532 6.91717 26.0403 7.0529C26.0274 7.18863 25.9869 7.3203 25.9213 7.43981C25.8557 7.55932 25.7664 7.66415 25.6588 7.74786L17.6588 14.7479C17.4862 14.8989 17.267 14.9861 17.0378 14.9947C16.8086 15.0034 16.5835 14.933 16.4 14.7954L9.04875 9.28411L2 15.4516V19.9979H25C25.2652 19.9979 25.5196 20.1032 25.7071 20.2908C25.8946 20.4783 26 20.7326 26 20.9979Z" fill="#F8F9FB"/>
</svg>
