<svg width="25" height="25" viewBox="0 0 25 25" fill="none" xmlns="http://www.w3.org/2000/svg">
<path d="M23.3762 9.96912L13.3762 0.534124C13.3713 0.529859 13.3667 0.525265 13.3625 0.520374C12.9943 0.185541 12.5145 0 12.0168 0C11.5192 0 11.0394 0.185541 10.6712 0.520374L10.6575 0.534124L0.668711 9.96912C0.464958 10.1565 0.302316 10.3841 0.191075 10.6376C0.0798349 10.891 0.0224189 11.1648 0.022461 11.4416V22.9979C0.022461 23.5283 0.233175 24.037 0.608247 24.4121C0.98332 24.7872 1.49203 24.9979 2.02246 24.9979H8.02246C8.55289 24.9979 9.0616 24.7872 9.43667 24.4121C9.81175 24.037 10.0225 23.5283 10.0225 22.9979V16.9979H14.0225V22.9979C14.0225 23.5283 14.2332 24.037 14.6082 24.4121C14.9833 24.7872 15.492 24.9979 16.0225 24.9979H22.0225C22.5529 24.9979 23.0616 24.7872 23.4367 24.4121C23.8117 24.037 24.0225 23.5283 24.0225 22.9979V11.4416C24.0225 11.1648 23.9651 10.891 23.8538 10.6376C23.7426 10.3841 23.58 10.1565 23.3762 9.96912ZM22.0225 22.9979H16.0225V16.9979C16.0225 16.4674 15.8117 15.9587 15.4367 15.5837C15.0616 15.2086 14.5529 14.9979 14.0225 14.9979H10.0225C9.49203 14.9979 8.98332 15.2086 8.60825 15.5837C8.23318 15.9587 8.02246 16.4674 8.02246 16.9979V22.9979H2.02246V11.4416L2.03621 11.4291L12.0225 1.99787L22.01 11.4266L22.0237 11.4391L22.0225 22.9979Z" fill="#F8F9FB"/>
</svg>
